<svg xmlns="http://www.w3.org/2000/svg" viewBox="0 0 720 920" role="img" aria-labelledby="title desc">
  <title id="title">Cacao origin hero</title>
  <desc id="desc">A warm illustrated cacao pod held in a tropical origin setting.</desc>
  <defs>
    <linearGradient id="bg" x1="0" x2="1" y1="0" y2="1">
      <stop offset="0" stop-color="#d8b06c"/>
      <stop offset=".55" stop-color="#2f4d28"/>
      <stop offset="1" stop-color="#17120d"/>
    </linearGradient>
    <linearGradient id="pod" x1="0" x2="1">
      <stop offset="0" stop-color="#f0c060"/>
      <stop offset=".45" stop-color="#c96f25"/>
      <stop offset="1" stop-color="#6b331c"/>
    </linearGradient>
  </defs>
  <rect width="720" height="920" fill="url(#bg)"/>
  <circle cx="590" cy="150" r="78" fill="#ffe7a5" opacity=".34"/>
  <g opacity=".55" fill="#132515">
    <path d="M0 330c140-92 282-118 426-78 114 32 206 15 294-53v721H0Z"/>
    <path d="M0 470c160-76 318-88 474-36 86 29 168 22 246-20v506H0Z"/>
  </g>
  <path d="M-40 610c146-82 232-70 306 36 42 60 88 97 154 112 92 21 193-17 340-114v276H-40Z" fill="#0d140d" opacity=".72"/>
  <g opacity=".88">
    <path d="M86 565c78-26 141-58 188-96 54-44 88-96 123-153 72 72 106 153 102 244-110 58-244 60-413 5Z" fill="#7a4b2f"/>
    <path d="M443 373c72 38 136 73 199 108 22 12 23 45 3 59-68 47-159 53-275 18Z" fill="#5b351f"/>
  </g>
  <ellipse cx="350" cy="382" rx="238" ry="134" transform="rotate(-22 350 382)" fill="url(#pod)"/>
  <path d="M144 453c80-78 178-139 290-184M174 491c94-80 196-141 306-184M232 515c88-64 180-112 276-144M112 406c142-10 274-47 396-112M126 365c116 22 245-7 386-87" fill="none" stroke="#6d3a1d" stroke-width="10" stroke-linecap="round" opacity=".58"/>
  <path d="M190 438c18-83 64-144 139-184" fill="none" stroke="#f6d98c" stroke-width="14" stroke-linecap="round" opacity=".7"/>
  <g fill="#9a6643">
    <path d="M44 503c56 20 117 42 184 66 21 8 12 42-10 38-77-13-143-34-198-64-25-14-3-49 24-40Z"/>
    <path d="M512 542c70 6 125 6 168-2 26-5 43 31 17 45-58 32-129 36-213 12-29-8-3-58 28-55Z"/>
  </g>
</svg>
