<svg xmlns="http://www.w3.org/2000/svg" viewBox="0 0 220 220"><rect width="220" height="220" fill="#211713"/><g fill="#6f351e"><ellipse cx="62" cy="78" rx="24" ry="16" transform="rotate(20 62 78)"/><ellipse cx="116" cy="62" rx="25" ry="15" transform="rotate(-18 116 62)"/><ellipse cx="161" cy="96" rx="26" ry="16" transform="rotate(26 161 96)"/><ellipse cx="88" cy="139" rx="27" ry="16" transform="rotate(-22 88 139)"/><ellipse cx="150" cy="154" rx="25" ry="15" transform="rotate(18 150 154)"/><ellipse cx="53" cy="174" rx="21" ry="13" transform="rotate(24 53 174)"/></g><g stroke="#ba7442" stroke-width="4" fill="none" opacity=".75"><path d="M45 75c13 8 26 9 40 1"/><path d="M97 62c14 5 27 4 39-5"/><path d="M141 94c14 8 28 9 42 1"/><path d="M67 139c15 5 29 3 42-6"/><path d="M131 153c13 7 26 8 39 1"/></g></svg>
